<?xml version="1.0" encoding="utf-8" standalone="no"?>
<!DOCTYPE svg PUBLIC "-//W3C//DTD SVG 1.1//EN"
  "http://www.w3.org/Graphics/SVG/1.1/DTD/svg11.dtd">
<!-- Created with matplotlib (http://matplotlib.org/) -->
<svg height="432pt" version="1.1" viewBox="0 0 576 432" width="576pt" xmlns="http://www.w3.org/2000/svg" xmlns:xlink="http://www.w3.org/1999/xlink">
 <defs>
  <style type="text/css">
*{stroke-linecap:butt;stroke-linejoin:round;}
  </style>
 </defs>
 <g id="figure_1">
  <g id="patch_1">
   <path d="
M0 432
L576 432
L576 0
L0 0
z
" style="fill:#ffffff;"/>
  </g>
  <g id="axes_1">
   <g id="patch_2">
    <path d="
M72 388.8
L518.4 388.8
L518.4 43.2
L72 43.2
z
" style="fill:#ffffff;"/>
   </g>
   <g id="line2d_1">
    <path clip-path="url(#p7ff5b81e1d)" d="
M72 48.816
L313.379 48.816
L313.538 384.48
L518.4 384.48
L518.4 384.48" style="fill:none;stroke:#0000ff;stroke-linecap:square;"/>
   </g>
   <g id="matplotlib.axis_1">
    <g id="xtick_1">
     <g id="line2d_2">
      <defs>
       <path d="
M0 0
L0 -4" id="m93b0483c22" style="stroke:#000000;stroke-width:0.5;"/>
      </defs>
      <g>
       <use style="stroke:#000000;stroke-width:0.5;" x="72.0" xlink:href="#m93b0483c22" y="388.8"/>
      </g>
     </g>
     <g id="line2d_3">
      <defs>
       <path d="
M0 0
L0 4" id="m741efc42ff" style="stroke:#000000;stroke-width:0.5;"/>
      </defs>
      <g>
       <use style="stroke:#000000;stroke-width:0.5;" x="72.0" xlink:href="#m741efc42ff" y="43.2"/>
      </g>
     </g>
     <g id="text_1">
      <!-- 0 -->
      <defs>
       <path d="
M56.9844 36.375
Q56.9844 16.7969 50.8594 7.64062
Q44.7344 -1.51562 31.8438 -1.51562
Q18.75 -1.51562 12.7188 7.76562
Q6.6875 17.0469 6.6875 36.2812
Q6.6875 55.6719 12.7812 64.9219
Q18.8906 74.1719 31.8438 74.1719
Q44.9219 74.1719 50.9531 64.7656
Q56.9844 55.375 56.9844 36.375
M44.1406 14.2031
Q45.8438 18.1719 46.4531 23.5156
Q47.0781 28.8594 47.0781 36.375
Q47.0781 43.7969 46.4531 49.2656
Q45.8438 54.7344 44.0938 58.5469
Q42.3906 62.3125 39.4219 64.2031
Q36.4688 66.1094 31.8438 66.1094
Q27.25 66.1094 24.2344 64.2031
Q21.2344 62.3125 19.4844 58.4531
Q17.8281 54.8281 17.2188 49.0156
Q16.6094 43.2188 16.6094 36.2812
Q16.6094 28.6562 17.1406 23.5312
Q17.6719 18.4062 19.4375 14.3594
Q21.0469 10.5469 24 8.54688
Q26.9531 6.54688 31.8438 6.54688
Q36.4219 6.54688 39.4531 8.45312
Q42.4844 10.3594 44.1406 14.2031" id="Verdana-30"/>
      </defs>
      <g transform="translate(68.9821875 401.918125)scale(0.12 -0.12)">
       <use xlink:href="#Verdana-30"/>
      </g>
     </g>
    </g>
    <g id="xtick_2">
     <g id="line2d_4">
      <g>
       <use style="stroke:#000000;stroke-width:0.5;" x="151.55801105" xlink:href="#m93b0483c22" y="388.8"/>
      </g>
     </g>
     <g id="line2d_5">
      <g>
       <use style="stroke:#000000;stroke-width:0.5;" x="151.55801105" xlink:href="#m741efc42ff" y="43.2"/>
      </g>
     </g>
     <g id="text_2">
      <!-- 1000 -->
      <defs>
       <path d="
M52.9375 0
L13.5781 0
L13.5781 7.42188
L28.7188 7.42188
L28.7188 56.1562
L13.5781 56.1562
L13.5781 62.7969
Q16.6562 62.7969 20.1719 63.2969
Q23.6875 63.8125 25.4844 64.7969
Q27.7344 66.0156 29.0312 67.8906
Q30.3281 69.7812 30.5156 72.9531
L38.0938 72.9531
L38.0938 7.42188
L52.9375 7.42188
z
" id="Verdana-31"/>
      </defs>
      <g transform="translate(137.50957355 401.918125)scale(0.12 -0.12)">
       <use xlink:href="#Verdana-31"/>
       <use x="63.57421875" xlink:href="#Verdana-30"/>
       <use x="127.1484375" xlink:href="#Verdana-30"/>
       <use x="190.72265625" xlink:href="#Verdana-30"/>
      </g>
     </g>
    </g>
    <g id="xtick_3">
     <g id="line2d_6">
      <g>
       <use style="stroke:#000000;stroke-width:0.5;" x="231.116022099" xlink:href="#m93b0483c22" y="388.8"/>
      </g>
     </g>
     <g id="line2d_7">
      <g>
       <use style="stroke:#000000;stroke-width:0.5;" x="231.116022099" xlink:href="#m741efc42ff" y="43.2"/>
      </g>
     </g>
     <g id="text_3">
      <!-- 2000 -->
      <defs>
       <path d="
M57.0781 0
L7.85938 0
L7.85938 10.2031
Q12.9844 14.5938 18.1406 18.9844
Q23.2969 23.3906 27.7344 27.7344
Q37.1094 36.8125 40.5781 42.1562
Q44.0469 47.5156 44.0469 53.7188
Q44.0469 59.375 40.3125 62.5625
Q36.5781 65.7656 29.8906 65.7656
Q25.4375 65.7656 20.2656 64.2031
Q15.0938 62.6406 10.1562 59.4219
L9.67188 59.4219
L9.67188 69.6719
Q13.1406 71.3906 18.9219 72.7969
Q24.7031 74.2188 30.125 74.2188
Q41.3125 74.2188 47.6562 68.8125
Q54 63.4219 54 54.2031
Q54 50.0469 52.9531 46.4531
Q51.9062 42.875 49.8594 39.6562
Q47.9531 36.625 45.3906 33.6875
Q42.8281 30.7656 39.1562 27.2031
Q33.9375 22.0781 28.3594 17.2656
Q22.7969 12.4531 17.9688 8.34375
L57.0781 8.34375
z
" id="Verdana-32"/>
      </defs>
      <g transform="translate(216.724459599 401.918125)scale(0.12 -0.12)">
       <use xlink:href="#Verdana-32"/>
       <use x="63.57421875" xlink:href="#Verdana-30"/>
       <use x="127.1484375" xlink:href="#Verdana-30"/>
       <use x="190.72265625" xlink:href="#Verdana-30"/>
      </g>
     </g>
    </g>
    <g id="xtick_4">
     <g id="line2d_8">
      <g>
       <use style="stroke:#000000;stroke-width:0.5;" x="310.674033149" xlink:href="#m93b0483c22" y="388.8"/>
      </g>
     </g>
     <g id="line2d_9">
      <g>
       <use style="stroke:#000000;stroke-width:0.5;" x="310.674033149" xlink:href="#m741efc42ff" y="43.2"/>
      </g>
     </g>
     <g id="text_4">
      <!-- 3000 -->
      <defs>
       <path d="
M50.6875 35.0156
Q53.0312 32.9062 54.5469 29.7344
Q56.0625 26.5625 56.0625 21.5312
Q56.0625 16.5469 54.25 12.3906
Q52.4375 8.25 49.1719 5.17188
Q45.5156 1.76562 40.5469 0.125
Q35.5938 -1.51562 29.6875 -1.51562
Q23.6406 -1.51562 17.7812 -0.0625
Q11.9219 1.375 8.15625 3.07812
L8.15625 13.2812
L8.89062 13.2812
Q13.0312 10.5469 18.6406 8.73438
Q24.2656 6.9375 29.5 6.9375
Q32.5625 6.9375 36.0312 7.95312
Q39.5 8.98438 41.6562 10.9844
Q43.8906 13.1406 44.9844 15.7188
Q46.0938 18.3125 46.0938 22.2656
Q46.0938 26.1719 44.8438 28.7344
Q43.6094 31.2969 41.4062 32.7656
Q39.2031 34.2812 36.0781 34.8438
Q32.9531 35.4062 29.3438 35.4062
L24.9531 35.4062
L24.9531 43.5
L28.375 43.5
Q35.7969 43.5 40.2031 46.5938
Q44.625 49.7031 44.625 55.6719
Q44.625 58.2969 43.5 60.2656
Q42.3906 62.25 40.375 63.5312
Q38.2812 64.7969 35.8906 65.2812
Q33.5 65.7656 30.4688 65.7656
Q25.8281 65.7656 20.5938 64.1094
Q15.375 62.4531 10.75 59.4219
L10.25 59.4219
L10.25 69.625
Q13.7188 71.3438 19.5 72.7812
Q25.2969 74.2188 30.7188 74.2188
Q36.0312 74.2188 40.0781 73.2344
Q44.1406 72.2656 47.4062 70.125
Q50.9219 67.7812 52.7344 64.4531
Q54.5469 61.1406 54.5469 56.6875
Q54.5469 50.6406 50.2656 46.125
Q46 41.6094 40.1875 40.4375
L40.1875 39.75
Q42.5312 39.3594 45.5469 38.1094
Q48.5781 36.8594 50.6875 35.0156" id="Verdana-33"/>
      </defs>
      <g transform="translate(296.300283149 401.918125)scale(0.12 -0.12)">
       <use xlink:href="#Verdana-33"/>
       <use x="63.57421875" xlink:href="#Verdana-30"/>
       <use x="127.1484375" xlink:href="#Verdana-30"/>
       <use x="190.72265625" xlink:href="#Verdana-30"/>
      </g>
     </g>
    </g>
    <g id="xtick_5">
     <g id="line2d_10">
      <g>
       <use style="stroke:#000000;stroke-width:0.5;" x="390.232044199" xlink:href="#m93b0483c22" y="388.8"/>
      </g>
     </g>
     <g id="line2d_11">
      <g>
       <use style="stroke:#000000;stroke-width:0.5;" x="390.232044199" xlink:href="#m741efc42ff" y="43.2"/>
      </g>
     </g>
     <g id="text_5">
      <!-- 4000 -->
      <defs>
       <path d="
M58.7344 20.4531
L47.9531 20.4531
L47.9531 0
L38.5781 0
L38.5781 20.4531
L3.76562 20.4531
L3.76562 31.6875
L38.9688 72.7031
L47.9531 72.7031
L47.9531 28.2656
L58.7344 28.2656
z

M38.5781 28.2656
L38.5781 61.0781
L10.4062 28.2656
z
" id="Verdana-34"/>
      </defs>
      <g transform="translate(375.594856699 401.918125)scale(0.12 -0.12)">
       <use xlink:href="#Verdana-34"/>
       <use x="63.57421875" xlink:href="#Verdana-30"/>
       <use x="127.1484375" xlink:href="#Verdana-30"/>
       <use x="190.72265625" xlink:href="#Verdana-30"/>
      </g>
     </g>
    </g>
    <g id="xtick_6">
     <g id="line2d_12">
      <g>
       <use style="stroke:#000000;stroke-width:0.5;" x="469.790055249" xlink:href="#m93b0483c22" y="388.8"/>
      </g>
     </g>
     <g id="line2d_13">
      <g>
       <use style="stroke:#000000;stroke-width:0.5;" x="469.790055249" xlink:href="#m741efc42ff" y="43.2"/>
      </g>
     </g>
     <g id="text_6">
      <!-- 5000 -->
      <defs>
       <path d="
M56.5 23.0938
Q56.5 18.0156 54.6406 13.375
Q52.7812 8.73438 49.5625 5.5625
Q46.0469 2.15625 41.1875 0.3125
Q36.3281 -1.51562 29.9375 -1.51562
Q23.9688 -1.51562 18.4531 -0.265625
Q12.9375 0.984375 9.125 2.73438
L9.125 13.0312
L9.8125 13.0312
Q13.8125 10.5 19.1875 8.71875
Q24.5625 6.9375 29.7344 6.9375
Q33.2031 6.9375 36.4531 7.90625
Q39.7031 8.89062 42.2344 11.3281
Q44.3906 13.4219 45.4844 16.3438
Q46.5781 19.2812 46.5781 23.1406
Q46.5781 26.9062 45.2812 29.4844
Q44 32.0781 41.7031 33.6406
Q39.1562 35.5 35.5156 36.25
Q31.8906 37.0156 27.3906 37.0156
Q23.0938 37.0156 19.1094 36.4219
Q15.1406 35.8438 12.25 35.25
L12.25 72.7031
L56 72.7031
L56 64.1562
L21.6875 64.1562
L21.6875 44.8281
Q23.7812 45.0156 25.9688 45.1094
Q28.1719 45.2188 29.7812 45.2188
Q35.6875 45.2188 40.125 44.2188
Q44.5781 43.2188 48.2969 40.6719
Q52.2031 37.9844 54.3438 33.7344
Q56.5 29.5 56.5 23.0938" id="Verdana-35"/>
      </defs>
      <g transform="translate(455.474430249 401.918125)scale(0.12 -0.12)">
       <use xlink:href="#Verdana-35"/>
       <use x="63.57421875" xlink:href="#Verdana-30"/>
       <use x="127.1484375" xlink:href="#Verdana-30"/>
       <use x="190.72265625" xlink:href="#Verdana-30"/>
      </g>
     </g>
    </g>
   </g>
   <g id="matplotlib.axis_2">
    <g id="ytick_1">
     <g id="line2d_14">
      <defs>
       <path d="
M0 0
L4 0" id="m728421d6d4" style="stroke:#000000;stroke-width:0.5;"/>
      </defs>
      <g>
       <use style="stroke:#000000;stroke-width:0.5;" x="72.0" xlink:href="#m728421d6d4" y="388.8"/>
      </g>
     </g>
     <g id="line2d_15">
      <defs>
       <path d="
M0 0
L-4 0" id="mcb0005524f" style="stroke:#000000;stroke-width:0.5;"/>
      </defs>
      <g>
       <use style="stroke:#000000;stroke-width:0.5;" x="518.4" xlink:href="#mcb0005524f" y="388.8"/>
      </g>
     </g>
     <g id="text_7">
      <!-- 0.2072 -->
      <defs>
       <path d="
M57.2812 61.8125
L24.3594 0
L13.9219 0
L48.9219 64.1562
L7.51562 64.1562
L7.51562 72.7031
L57.2812 72.7031
z
" id="Verdana-37"/>
       <path d="
M24.0312 0
L12.3594 0
L12.3594 13.9219
L24.0312 13.9219
z
" id="Verdana-2e"/>
      </defs>
      <g transform="translate(27.070625 392.1515625)scale(0.12 -0.12)">
       <use xlink:href="#Verdana-30"/>
       <use x="63.57421875" xlink:href="#Verdana-2e"/>
       <use x="99.951171875" xlink:href="#Verdana-32"/>
       <use x="163.525390625" xlink:href="#Verdana-30"/>
       <use x="227.099609375" xlink:href="#Verdana-37"/>
       <use x="290.673828125" xlink:href="#Verdana-32"/>
      </g>
     </g>
    </g>
    <g id="ytick_2">
     <g id="line2d_16">
      <g>
       <use style="stroke:#000000;stroke-width:0.5;" x="72.0" xlink:href="#m728421d6d4" y="345.6"/>
      </g>
     </g>
     <g id="line2d_17">
      <g>
       <use style="stroke:#000000;stroke-width:0.5;" x="518.4" xlink:href="#mcb0005524f" y="345.6"/>
      </g>
     </g>
     <g id="text_8">
      <!-- 0.2074 -->
      <g transform="translate(26.871875 348.9515625)scale(0.12 -0.12)">
       <use xlink:href="#Verdana-30"/>
       <use x="63.57421875" xlink:href="#Verdana-2e"/>
       <use x="99.951171875" xlink:href="#Verdana-32"/>
       <use x="163.525390625" xlink:href="#Verdana-30"/>
       <use x="227.099609375" xlink:href="#Verdana-37"/>
       <use x="290.673828125" xlink:href="#Verdana-34"/>
      </g>
     </g>
    </g>
    <g id="ytick_3">
     <g id="line2d_18">
      <g>
       <use style="stroke:#000000;stroke-width:0.5;" x="72.0" xlink:href="#m728421d6d4" y="302.4"/>
      </g>
     </g>
     <g id="line2d_19">
      <g>
       <use style="stroke:#000000;stroke-width:0.5;" x="518.4" xlink:href="#mcb0005524f" y="302.4"/>
      </g>
     </g>
     <g id="text_9">
      <!-- 0.2076 -->
      <defs>
       <path d="
M58.1562 23.5781
Q58.1562 12.5 50.8594 5.48438
Q43.5625 -1.51562 32.9531 -1.51562
Q27.5938 -1.51562 23.1875 0.140625
Q18.7969 1.8125 15.4375 5.07812
Q11.2344 9.125 8.95312 15.8125
Q6.6875 22.5156 6.6875 31.9375
Q6.6875 41.6094 8.76562 49.0781
Q10.8438 56.5469 15.375 62.3594
Q19.6719 67.875 26.4531 70.9688
Q33.25 74.0781 42.2812 74.0781
Q45.1719 74.0781 47.125 73.8281
Q49.0781 73.5781 51.0781 72.9531
L51.0781 63.625
L50.5938 63.625
Q49.2188 64.3594 46.4531 65.0156
Q43.7031 65.6719 40.8281 65.6719
Q30.3281 65.6719 24.0781 59.1094
Q17.8281 52.5469 16.7969 41.3594
Q20.9062 43.8438 24.875 45.1406
Q28.8594 46.4375 34.0781 46.4375
Q38.7188 46.4375 42.25 45.5781
Q45.7969 44.7344 49.5156 42.1406
Q53.8125 39.1562 55.9844 34.6094
Q58.1562 30.0781 58.1562 23.5781
M48.25 23.1875
Q48.25 27.7344 46.9062 30.7031
Q45.5625 33.6875 42.4844 35.8906
Q40.2344 37.4531 37.5 37.9375
Q34.7656 38.4219 31.7812 38.4219
Q27.6406 38.4219 24.0781 37.4375
Q20.5156 36.4688 16.75 34.4219
Q16.6562 33.3438 16.5938 32.3438
Q16.5469 31.3438 16.5469 29.8281
Q16.5469 22.125 18.1406 17.6562
Q19.7344 13.1875 22.5156 10.5938
Q24.75 8.45312 27.3594 7.45312
Q29.9844 6.45312 33.0625 6.45312
Q40.1406 6.45312 44.1875 10.7656
Q48.25 15.0938 48.25 23.1875" id="Verdana-36"/>
      </defs>
      <g transform="translate(26.94125 305.7515625)scale(0.12 -0.12)">
       <use xlink:href="#Verdana-30"/>
       <use x="63.57421875" xlink:href="#Verdana-2e"/>
       <use x="99.951171875" xlink:href="#Verdana-32"/>
       <use x="163.525390625" xlink:href="#Verdana-30"/>
       <use x="227.099609375" xlink:href="#Verdana-37"/>
       <use x="290.673828125" xlink:href="#Verdana-36"/>
      </g>
     </g>
    </g>
    <g id="ytick_4">
     <g id="line2d_20">
      <g>
       <use style="stroke:#000000;stroke-width:0.5;" x="72.0" xlink:href="#m728421d6d4" y="259.2"/>
      </g>
     </g>
     <g id="line2d_21">
      <g>
       <use style="stroke:#000000;stroke-width:0.5;" x="518.4" xlink:href="#mcb0005524f" y="259.2"/>
      </g>
     </g>
     <g id="text_10">
      <!-- 0.2078 -->
      <defs>
       <path d="
M57.625 20.2656
Q57.625 10.8438 50.2656 4.59375
Q42.9219 -1.65625 31.7812 -1.65625
Q19.9688 -1.65625 12.9531 4.4375
Q5.95312 10.5469 5.95312 20.0625
Q5.95312 26.125 9.46875 31.0312
Q12.9844 35.9375 19.3906 38.8125
L19.3906 39.1094
Q13.5312 42.2344 10.7188 45.9375
Q7.90625 49.6562 7.90625 55.2188
Q7.90625 63.4219 14.6406 68.8906
Q21.3906 74.3594 31.7812 74.3594
Q42.6719 74.3594 49.1719 69.1406
Q55.6719 63.9219 55.6719 55.8594
Q55.6719 50.9219 52.5938 46.1562
Q49.5156 41.4062 43.5625 38.7188
L43.5625 38.4219
Q50.3906 35.5 54 31.2031
Q57.625 26.9062 57.625 20.2656
M46.0469 55.7656
Q46.0469 60.9844 42.0156 64.0781
Q37.9844 67.1875 31.7344 67.1875
Q25.5938 67.1875 21.6562 64.25
Q17.7188 61.3281 17.7188 56.3438
Q17.7188 52.8281 19.7031 50.2656
Q21.6875 47.7031 25.6875 45.7031
Q27.4844 44.8281 30.875 43.4062
Q34.2812 42 37.5 41.0625
Q42.3281 44.2812 44.1875 47.75
Q46.0469 51.2188 46.0469 55.7656
M47.5625 19.3438
Q47.5625 23.8281 45.5781 26.5312
Q43.6094 29.25 37.8438 31.9844
Q35.5469 33.0625 32.8125 33.9844
Q30.0781 34.9062 25.5312 36.5781
Q21.1406 34.1875 18.4844 30.0781
Q15.8281 25.9844 15.8281 20.7969
Q15.8281 14.2031 20.3594 9.90625
Q24.9062 5.60938 31.8906 5.60938
Q39.0156 5.60938 43.2812 9.26562
Q47.5625 12.9375 47.5625 19.3438" id="Verdana-38"/>
      </defs>
      <g transform="translate(27.005 262.5515625)scale(0.12 -0.12)">
       <use xlink:href="#Verdana-30"/>
       <use x="63.57421875" xlink:href="#Verdana-2e"/>
       <use x="99.951171875" xlink:href="#Verdana-32"/>
       <use x="163.525390625" xlink:href="#Verdana-30"/>
       <use x="227.099609375" xlink:href="#Verdana-37"/>
       <use x="290.673828125" xlink:href="#Verdana-38"/>
      </g>
     </g>
    </g>
    <g id="ytick_5">
     <g id="line2d_22">
      <g>
       <use style="stroke:#000000;stroke-width:0.5;" x="72.0" xlink:href="#m728421d6d4" y="216.0"/>
      </g>
     </g>
     <g id="line2d_23">
      <g>
       <use style="stroke:#000000;stroke-width:0.5;" x="518.4" xlink:href="#mcb0005524f" y="216.0"/>
      </g>
     </g>
     <g id="text_11">
      <!-- 0.2080 -->
      <g transform="translate(27.081875 219.3515625)scale(0.12 -0.12)">
       <use xlink:href="#Verdana-30"/>
       <use x="63.57421875" xlink:href="#Verdana-2e"/>
       <use x="99.951171875" xlink:href="#Verdana-32"/>
       <use x="163.525390625" xlink:href="#Verdana-30"/>
       <use x="227.099609375" xlink:href="#Verdana-38"/>
       <use x="290.673828125" xlink:href="#Verdana-30"/>
      </g>
     </g>
    </g>
    <g id="ytick_6">
     <g id="line2d_24">
      <g>
       <use style="stroke:#000000;stroke-width:0.5;" x="72.0" xlink:href="#m728421d6d4" y="172.8"/>
      </g>
     </g>
     <g id="line2d_25">
      <g>
       <use style="stroke:#000000;stroke-width:0.5;" x="518.4" xlink:href="#mcb0005524f" y="172.8"/>
      </g>
     </g>
     <g id="text_12">
      <!-- 0.2082 -->
      <g transform="translate(27.070625 176.1515625)scale(0.12 -0.12)">
       <use xlink:href="#Verdana-30"/>
       <use x="63.57421875" xlink:href="#Verdana-2e"/>
       <use x="99.951171875" xlink:href="#Verdana-32"/>
       <use x="163.525390625" xlink:href="#Verdana-30"/>
       <use x="227.099609375" xlink:href="#Verdana-38"/>
       <use x="290.673828125" xlink:href="#Verdana-32"/>
      </g>
     </g>
    </g>
    <g id="ytick_7">
     <g id="line2d_26">
      <g>
       <use style="stroke:#000000;stroke-width:0.5;" x="72.0" xlink:href="#m728421d6d4" y="129.6"/>
      </g>
     </g>
     <g id="line2d_27">
      <g>
       <use style="stroke:#000000;stroke-width:0.5;" x="518.4" xlink:href="#mcb0005524f" y="129.6"/>
      </g>
     </g>
     <g id="text_13">
      <!-- 0.2084 -->
      <g transform="translate(26.871875 132.9515625)scale(0.12 -0.12)">
       <use xlink:href="#Verdana-30"/>
       <use x="63.57421875" xlink:href="#Verdana-2e"/>
       <use x="99.951171875" xlink:href="#Verdana-32"/>
       <use x="163.525390625" xlink:href="#Verdana-30"/>
       <use x="227.099609375" xlink:href="#Verdana-38"/>
       <use x="290.673828125" xlink:href="#Verdana-34"/>
      </g>
     </g>
    </g>
    <g id="ytick_8">
     <g id="line2d_28">
      <g>
       <use style="stroke:#000000;stroke-width:0.5;" x="72.0" xlink:href="#m728421d6d4" y="86.4"/>
      </g>
     </g>
     <g id="line2d_29">
      <g>
       <use style="stroke:#000000;stroke-width:0.5;" x="518.4" xlink:href="#mcb0005524f" y="86.4"/>
      </g>
     </g>
     <g id="text_14">
      <!-- 0.2086 -->
      <g transform="translate(26.94125 89.7515625)scale(0.12 -0.12)">
       <use xlink:href="#Verdana-30"/>
       <use x="63.57421875" xlink:href="#Verdana-2e"/>
       <use x="99.951171875" xlink:href="#Verdana-32"/>
       <use x="163.525390625" xlink:href="#Verdana-30"/>
       <use x="227.099609375" xlink:href="#Verdana-38"/>
       <use x="290.673828125" xlink:href="#Verdana-36"/>
      </g>
     </g>
    </g>
    <g id="ytick_9">
     <g id="line2d_30">
      <g>
       <use style="stroke:#000000;stroke-width:0.5;" x="72.0" xlink:href="#m728421d6d4" y="43.2"/>
      </g>
     </g>
     <g id="line2d_31">
      <g>
       <use style="stroke:#000000;stroke-width:0.5;" x="518.4" xlink:href="#mcb0005524f" y="43.2"/>
      </g>
     </g>
     <g id="text_15">
      <!-- 0.2088 -->
      <g transform="translate(27.005 46.5515625)scale(0.12 -0.12)">
       <use xlink:href="#Verdana-30"/>
       <use x="63.57421875" xlink:href="#Verdana-2e"/>
       <use x="99.951171875" xlink:href="#Verdana-32"/>
       <use x="163.525390625" xlink:href="#Verdana-30"/>
       <use x="227.099609375" xlink:href="#Verdana-38"/>
       <use x="290.673828125" xlink:href="#Verdana-38"/>
      </g>
     </g>
    </g>
   </g>
   <g id="patch_3">
    <path d="
M72 43.2
L518.4 43.2" style="fill:none;stroke:#000000;"/>
   </g>
   <g id="patch_4">
    <path d="
M518.4 388.8
L518.4 43.2" style="fill:none;stroke:#000000;"/>
   </g>
   <g id="patch_5">
    <path d="
M72 388.8
L518.4 388.8" style="fill:none;stroke:#000000;"/>
   </g>
   <g id="patch_6">
    <path d="
M72 388.8
L72 43.2" style="fill:none;stroke:#000000;"/>
   </g>
   <g id="legend_1">
    <g id="patch_7">
     <path d="
M346.892 75.7597
L511.2 75.7597
L511.2 50.4
L346.892 50.4
L346.892 75.7597
z
" style="fill:#ffffff;stroke:#000000;"/>
    </g>
    <g id="line2d_32">
     <path d="
M356.971 62.0617
L377.132 62.0617" style="fill:none;stroke:#0000ff;stroke-linecap:square;"/>
    </g>
    <g id="line2d_33"/>
    <g id="text_16">
     <!-- mem requested -->
     <defs>
      <path d="
M54.25 0
L45.0625 0
L45.0625 6.0625
Q40.4375 2.39062 36.1875 0.4375
Q31.9375 -1.51562 26.8125 -1.51562
Q18.2188 -1.51562 13.4219 3.73438
Q8.64062 8.98438 8.64062 19.1406
L8.64062 54.5469
L17.8281 54.5469
L17.8281 23.4844
Q17.8281 19.3438 18.2188 16.375
Q18.6094 13.4219 19.875 11.3281
Q21.1875 9.1875 23.2812 8.20312
Q25.3906 7.23438 29.3906 7.23438
Q32.9531 7.23438 37.1719 9.07812
Q41.4062 10.9375 45.0625 13.8125
L45.0625 54.5469
L54.25 54.5469
z
" id="Verdana-75"/>
      <path d="
M37.3594 0.484375
Q34.7656 -0.203125 31.7031 -0.640625
Q28.6562 -1.07812 26.2656 -1.07812
Q17.9219 -1.07812 13.5781 3.40625
Q9.23438 7.90625 9.23438 17.8281
L9.23438 46.8281
L3.03125 46.8281
L3.03125 54.5469
L9.23438 54.5469
L9.23438 70.2188
L18.4062 70.2188
L18.4062 54.5469
L37.3594 54.5469
L37.3594 46.8281
L18.4062 46.8281
L18.4062 21.9688
Q18.4062 17.6719 18.5938 15.25
Q18.7969 12.8438 19.9688 10.75
Q21.0469 8.79688 22.9219 7.89062
Q24.8125 6.98438 28.6562 6.98438
Q30.9062 6.98438 33.3438 7.64062
Q35.7969 8.29688 36.8594 8.73438
L37.3594 8.73438
z
" id="Verdana-74"/>
      <path d="
M53.2656 0
L44.0938 0
L44.0938 5.71875
Q40.1406 2.29688 35.8438 0.390625
Q31.5469 -1.51562 26.5156 -1.51562
Q16.75 -1.51562 11.0156 6
Q5.28125 13.5312 5.28125 26.8594
Q5.28125 33.7969 7.25 39.2031
Q9.23438 44.625 12.5938 48.4375
Q15.9219 52.1562 20.3281 54.1094
Q24.75 56.0625 29.5 56.0625
Q33.7969 56.0625 37.1094 55.1562
Q40.4375 54.25 44.0938 52.3438
L44.0938 75.9844
L53.2656 75.9844
z

M44.0938 13.4219
L44.0938 44.7344
Q40.375 46.3906 37.4375 47.0156
Q34.5156 47.6562 31.0625 47.6562
Q23.3438 47.6562 19.0469 42.2812
Q14.75 36.9219 14.75 27.0469
Q14.75 17.3281 18.0625 12.2812
Q21.3906 7.23438 28.7188 7.23438
Q32.625 7.23438 36.625 8.95312
Q40.625 10.6875 44.0938 13.4219" id="Verdana-64"/>
      <path d="
M54.6875 26.3125
L14.5 26.3125
Q14.5 21.2969 16.0156 17.5469
Q17.5312 13.8125 20.1719 11.4219
Q22.7031 9.07812 26.1875 7.90625
Q29.6875 6.73438 33.8906 6.73438
Q39.4531 6.73438 45.0938 8.95312
Q50.7344 11.1875 53.125 13.3281
L53.6094 13.3281
L53.6094 3.32812
Q48.9688 1.375 44.1406 0.046875
Q39.3125 -1.26562 33.9844 -1.26562
Q20.4062 -1.26562 12.7812 6.07812
Q5.17188 13.4219 5.17188 26.9531
Q5.17188 40.3281 12.4688 48.1875
Q19.7812 56.0625 31.6875 56.0625
Q42.7188 56.0625 48.7031 49.6094
Q54.6875 43.1719 54.6875 31.2969
z

M45.75 33.3438
Q45.7031 40.5781 42.1094 44.5312
Q38.5312 48.4844 31.2031 48.4844
Q23.8281 48.4844 19.4531 44.1406
Q15.0938 39.7969 14.5 33.3438
z
" id="Verdana-65"/>
      <path d="
M53.2656 -20.125
L44.0938 -20.125
L44.0938 6.15625
Q39.8438 2.48438 35.6406 0.703125
Q31.4531 -1.07812 26.5625 -1.07812
Q16.8438 -1.07812 11.0625 6.42188
Q5.28125 13.9219 5.28125 27.0938
Q5.28125 34.125 7.29688 39.5156
Q9.32812 44.9219 12.6406 48.5781
Q15.875 52.1562 20.2188 54.1094
Q24.5625 56.0625 29.3906 56.0625
Q33.7969 56.0625 37.1875 55.0781
Q40.5781 54.1094 44.0938 52.2031
L44.6719 54.5469
L53.2656 54.5469
z

M44.0938 13.875
L44.0938 44.7344
Q40.2812 46.4375 37.3438 47.1094
Q34.4219 47.7969 31 47.7969
Q23.0469 47.7969 18.8906 42.4062
Q14.75 37.0156 14.75 27.5469
Q14.75 17.9688 18.0938 12.8125
Q21.4375 7.67188 28.6094 7.67188
Q32.625 7.67188 36.625 9.40625
Q40.625 11.1406 44.0938 13.875" id="Verdana-71"/>
      <path d="
M48 15.7188
Q48 8.25 41.8125 3.46875
Q35.6406 -1.3125 24.9531 -1.3125
Q18.8906 -1.3125 13.8438 0.125
Q8.79688 1.5625 5.375 3.26562
L5.375 13.5781
L5.85938 13.5781
Q10.2031 10.2969 15.5156 8.375
Q20.8438 6.45312 25.7344 6.45312
Q31.7812 6.45312 35.2031 8.40625
Q38.625 10.3594 38.625 14.5469
Q38.625 17.7812 36.7656 19.4375
Q34.9062 21.0938 29.6406 22.2656
Q27.6875 22.7031 24.5312 23.2812
Q21.3906 23.875 18.7969 24.5625
Q11.625 26.4688 8.60938 30.1562
Q5.60938 33.8438 5.60938 39.2031
Q5.60938 42.5781 7 45.5469
Q8.40625 48.5312 11.2344 50.875
Q13.9688 53.1719 18.1875 54.5156
Q22.4062 55.8594 27.6406 55.8594
Q32.5156 55.8594 37.5156 54.6562
Q42.5312 53.4688 45.8438 51.7656
L45.8438 41.9375
L45.3594 41.9375
Q41.8438 44.5312 36.8125 46.3125
Q31.7812 48.0938 26.9531 48.0938
Q21.9219 48.0938 18.4531 46.1562
Q14.9844 44.2344 14.9844 40.4375
Q14.9844 37.0625 17.0938 35.3594
Q19.1406 33.6406 23.7344 32.5625
Q26.2656 31.9844 29.4062 31.3906
Q32.5625 30.8125 34.6719 30.3281
Q41.0625 28.8594 44.5312 25.2969
Q48 21.6875 48 15.7188" id="Verdana-73"/>
      <path d="
M43.0625 44.5312
L42.5781 44.5312
Q40.5312 45.0156 38.5938 45.2344
Q36.6719 45.4531 34.0312 45.4531
Q29.7812 45.4531 25.8281 43.5781
Q21.875 41.7031 18.2188 38.7188
L18.2188 0
L9.03125 0
L9.03125 54.5469
L18.2188 54.5469
L18.2188 46.4844
Q23.6875 50.875 27.8594 52.7031
Q32.0312 54.5469 36.375 54.5469
Q38.7656 54.5469 39.8438 54.4219
Q40.9219 54.2969 43.0625 53.9531
z
" id="Verdana-72"/>
      <path id="Verdana-20"/>
      <path d="
M88.625 0
L79.4375 0
L79.4375 31.0625
Q79.4375 34.5781 79.125 37.8438
Q78.8125 41.1094 77.7812 43.0625
Q76.6562 45.1719 74.5625 46.2344
Q72.4688 47.3125 68.5 47.3125
Q64.6562 47.3125 60.7969 45.375
Q56.9375 43.4531 53.0781 40.4844
Q53.2188 39.3594 53.3125 37.8594
Q53.4219 36.375 53.4219 34.9062
L53.4219 0
L44.2344 0
L44.2344 31.0625
Q44.2344 34.6719 43.9219 37.9062
Q43.6094 41.1562 42.5781 43.1094
Q41.4531 45.2188 39.3438 46.2656
Q37.25 47.3125 33.2969 47.3125
Q29.5469 47.3125 25.75 45.4531
Q21.9688 43.6094 18.2188 40.7188
L18.2188 0
L9.03125 0
L9.03125 54.5469
L18.2188 54.5469
L18.2188 48.4844
Q22.5156 52.0469 26.7812 54.0469
Q31.0625 56.0625 35.8906 56.0625
Q41.4531 56.0625 45.3281 53.7188
Q49.2188 51.375 51.125 47.2188
Q56.6875 51.9062 61.2812 53.9844
Q65.875 56.0625 71.0938 56.0625
Q80.0781 56.0625 84.3438 50.6094
Q88.625 45.1719 88.625 35.4062
z
" id="Verdana-6d"/>
     </defs>
     <g transform="translate(392.9715 67.10175)scale(0.144 -0.144)">
      <use xlink:href="#Verdana-6d"/>
      <use x="97.265625" xlink:href="#Verdana-65"/>
      <use x="156.8359375" xlink:href="#Verdana-6d"/>
      <use x="254.1015625" xlink:href="#Verdana-20"/>
      <use x="289.2578125" xlink:href="#Verdana-72"/>
      <use x="331.93359375" xlink:href="#Verdana-65"/>
      <use x="391.50390625" xlink:href="#Verdana-71"/>
      <use x="453.80859375" xlink:href="#Verdana-75"/>
      <use x="517.08984375" xlink:href="#Verdana-65"/>
      <use x="576.66015625" xlink:href="#Verdana-73"/>
      <use x="628.759765625" xlink:href="#Verdana-74"/>
      <use x="668.1640625" xlink:href="#Verdana-65"/>
      <use x="727.734375" xlink:href="#Verdana-64"/>
     </g>
    </g>
   </g>
  </g>
 </g>
 <defs>
  <clipPath id="p7ff5b81e1d">
   <rect height="345.6" width="446.4" x="72.0" y="43.2"/>
  </clipPath>
 </defs>
</svg>
